# xmcd CD database file
#
# Track frame offsets:
#	150
#	10187
#	21480
#	33715
#	47030
#	70242
#	82855
#	106182
#	119002
#	135762
#	145172
#	158142
#	175922
#	185892
#	196677
#
# Disc length: 2840 seconds
#
# Revision: 2
# Processed by: cddbd v1.5.2PL0 Copyright (c) Steve Scherf et al.
# Submitted via: CDex 1.51
#
DISCID=c80b160f
DTITLE=Commander Cody and His Lost Planet Airmen - Too Much Fun
DYEAR=1990
DGENRE=Western Swing
TTITLE0=Lost in the Ozone
TTITLE1=Midnight Shift
TTITLE2=Hot Rod Lincoln
TTITLE3=20 Flight Rock
TTITLE4=Beat me Daddy Eight to the Bar
TTITLE5=Truck Drivin' Man
TTITLE6=Mama Hated Diesels
TTITLE7=Rock that Boogie
TTITLE8=Smoke, Smoke, Smoke
TTITLE9=Everybody's Doin' It
TTITLE10=Good Rockin' Tonite
TTITLE11=Seeds and Stems
TTITLE12=Git It
TTITLE13=Diggy Liggy Lo
TTITLE14=Too Much Fun
EXTD=Commander Cody and his Lost Planet Airmen YEAR: 1990
EXTT0=
EXTT1=
EXTT2=
EXTT3=
EXTT4=
EXTT5=Too Much Fun
EXTT6=Too Much Fun
EXTT7=Too Much Fun
EXTT8=Smoke, Smoke, Smoke (that Cigarette)
EXTT9=Commander Cody and his Lost Planet Airmen - Too Much Fun
EXTT10=
EXTT11=(Down to) Seeds and Stems (Again)
EXTT12=
EXTT13=
EXTT14=Too Much Fun (from Too Much Fun)
PLAYORDER=
